<mxfile host="app.diagrams.net" modified="2020-11-19T16:27:22.523Z" agent="5.0 (Windows NT 10.0; Win64; x64) AppleWebKit/537.36 (KHTML, like Gecko) Chrome/88.0.4315.5 Safari/537.36" etag="4uI6_OsiBuCb_1EN_8cz" version="13.10.0" type="github">
  <diagram id="kAnZozppw7qkSNgmFEGk" name="Page-1">
    <mxGraphModel dx="939" dy="572" grid="1" gridSize="10" guides="1" tooltips="1" connect="1" arrows="1" fold="1" page="1" pageScale="1" pageWidth="850" pageHeight="1100" math="0" shadow="0">
      <root>
        <mxCell id="0" />
        <mxCell id="1" parent="0" />
        <mxCell id="qVr21uVaAAwVFGFWXQhc-1" value="" style="ellipse;html=1;shape=startState;fillColor=#000000;strokeColor=#ff0000;" vertex="1" parent="1">
          <mxGeometry x="425" y="40" width="30" height="30" as="geometry" />
        </mxCell>
        <mxCell id="qVr21uVaAAwVFGFWXQhc-2" value="" style="edgeStyle=orthogonalEdgeStyle;html=1;verticalAlign=bottom;endArrow=open;endSize=8;strokeColor=#ff0000;entryX=0.5;entryY=0;entryDx=0;entryDy=0;" edge="1" source="qVr21uVaAAwVFGFWXQhc-1" parent="1" target="qVr21uVaAAwVFGFWXQhc-4">
          <mxGeometry relative="1" as="geometry">
            <mxPoint x="435" y="170" as="targetPoint" />
          </mxGeometry>
        </mxCell>
        <mxCell id="qVr21uVaAAwVFGFWXQhc-3" value="" style="ellipse;html=1;shape=endState;fillColor=#000000;strokeColor=#ff0000;" vertex="1" parent="1">
          <mxGeometry x="425" y="1100" width="30" height="30" as="geometry" />
        </mxCell>
        <mxCell id="qVr21uVaAAwVFGFWXQhc-4" value="Chọn chức năng ủy quyền tài khoản laz seller center" style="rounded=1;whiteSpace=wrap;html=1;arcSize=40;fontColor=#000000;fillColor=#ffffc0;strokeColor=#ff0000;" vertex="1" parent="1">
          <mxGeometry x="375" y="140" width="130" height="50" as="geometry" />
        </mxCell>
        <mxCell id="qVr21uVaAAwVFGFWXQhc-5" value="" style="edgeStyle=orthogonalEdgeStyle;html=1;verticalAlign=bottom;endArrow=open;endSize=8;strokeColor=#ff0000;entryX=0.5;entryY=0;entryDx=0;entryDy=0;" edge="1" source="qVr21uVaAAwVFGFWXQhc-4" parent="1" target="qVr21uVaAAwVFGFWXQhc-6">
          <mxGeometry relative="1" as="geometry">
            <mxPoint x="440" y="250" as="targetPoint" />
          </mxGeometry>
        </mxCell>
        <mxCell id="qVr21uVaAAwVFGFWXQhc-6" value="" style="rhombus;whiteSpace=wrap;html=1;fillColor=#ffffc0;strokeColor=#ff0000;" vertex="1" parent="1">
          <mxGeometry x="400" y="270" width="80" height="40" as="geometry" />
        </mxCell>
        <mxCell id="qVr21uVaAAwVFGFWXQhc-7" value="no" style="edgeStyle=orthogonalEdgeStyle;html=1;align=left;verticalAlign=bottom;endArrow=open;endSize=8;strokeColor=#ff0000;" edge="1" source="qVr21uVaAAwVFGFWXQhc-6" parent="1" target="qVr21uVaAAwVFGFWXQhc-18">
          <mxGeometry x="-1" relative="1" as="geometry">
            <mxPoint x="440" y="400" as="targetPoint" />
          </mxGeometry>
        </mxCell>
        <mxCell id="qVr21uVaAAwVFGFWXQhc-8" value="yes" style="edgeStyle=orthogonalEdgeStyle;html=1;align=left;verticalAlign=top;endArrow=open;endSize=8;strokeColor=#ff0000;entryX=0.5;entryY=0;entryDx=0;entryDy=0;" edge="1" source="qVr21uVaAAwVFGFWXQhc-6" parent="1" target="qVr21uVaAAwVFGFWXQhc-11">
          <mxGeometry x="-1" relative="1" as="geometry">
            <mxPoint x="240" y="360" as="targetPoint" />
          </mxGeometry>
        </mxCell>
        <mxCell id="qVr21uVaAAwVFGFWXQhc-10" value="Người dùng đã &lt;br&gt;ủy quyền hay chưa?" style="text;html=1;align=center;verticalAlign=middle;resizable=0;points=[];autosize=1;" vertex="1" parent="1">
          <mxGeometry x="310" y="240" width="120" height="30" as="geometry" />
        </mxCell>
        <mxCell id="qVr21uVaAAwVFGFWXQhc-11" value="Ủy quyền tài khoản mới" style="rounded=1;whiteSpace=wrap;html=1;arcSize=40;fontColor=#000000;fillColor=#ffffc0;strokeColor=#ff0000;" vertex="1" parent="1">
          <mxGeometry x="170" y="360" width="120" height="40" as="geometry" />
        </mxCell>
        <mxCell id="qVr21uVaAAwVFGFWXQhc-12" value="" style="edgeStyle=orthogonalEdgeStyle;html=1;verticalAlign=bottom;endArrow=open;endSize=8;strokeColor=#ff0000;" edge="1" source="qVr21uVaAAwVFGFWXQhc-11" parent="1" target="qVr21uVaAAwVFGFWXQhc-13">
          <mxGeometry relative="1" as="geometry">
            <mxPoint x="230" y="480" as="targetPoint" />
          </mxGeometry>
        </mxCell>
        <mxCell id="qVr21uVaAAwVFGFWXQhc-13" value="" style="rhombus;whiteSpace=wrap;html=1;fillColor=#ffffc0;strokeColor=#ff0000;" vertex="1" parent="1">
          <mxGeometry x="190" y="480" width="80" height="40" as="geometry" />
        </mxCell>
        <mxCell id="qVr21uVaAAwVFGFWXQhc-14" value="no" style="edgeStyle=orthogonalEdgeStyle;html=1;align=left;verticalAlign=bottom;endArrow=open;endSize=8;strokeColor=#ff0000;" edge="1" source="qVr21uVaAAwVFGFWXQhc-13" parent="1" target="qVr21uVaAAwVFGFWXQhc-3">
          <mxGeometry x="-1" relative="1" as="geometry">
            <mxPoint x="80" y="910" as="targetPoint" />
            <Array as="points">
              <mxPoint x="120" y="500" />
              <mxPoint x="120" y="1115" />
            </Array>
          </mxGeometry>
        </mxCell>
        <mxCell id="qVr21uVaAAwVFGFWXQhc-15" value="yes" style="edgeStyle=orthogonalEdgeStyle;html=1;align=left;verticalAlign=top;endArrow=open;endSize=8;strokeColor=#ff0000;entryX=0;entryY=0.5;entryDx=0;entryDy=0;" edge="1" source="qVr21uVaAAwVFGFWXQhc-13" parent="1" target="qVr21uVaAAwVFGFWXQhc-18">
          <mxGeometry x="-1" relative="1" as="geometry">
            <mxPoint x="230" y="630" as="targetPoint" />
          </mxGeometry>
        </mxCell>
        <mxCell id="qVr21uVaAAwVFGFWXQhc-16" value="Xác nhận?" style="text;html=1;align=center;verticalAlign=middle;resizable=0;points=[];autosize=1;" vertex="1" parent="1">
          <mxGeometry x="160" y="460" width="70" height="20" as="geometry" />
        </mxCell>
        <mxCell id="qVr21uVaAAwVFGFWXQhc-18" value="Nhập thông tin tài khoản laz seller center vào trang ủy quyền" style="rounded=1;whiteSpace=wrap;html=1;arcSize=40;fontColor=#000000;fillColor=#ffffc0;strokeColor=#ff0000;" vertex="1" parent="1">
          <mxGeometry x="360" y="400" width="160" height="70" as="geometry" />
        </mxCell>
        <mxCell id="qVr21uVaAAwVFGFWXQhc-19" value="" style="edgeStyle=orthogonalEdgeStyle;html=1;verticalAlign=bottom;endArrow=open;endSize=8;strokeColor=#ff0000;entryX=0.5;entryY=0;entryDx=0;entryDy=0;" edge="1" source="qVr21uVaAAwVFGFWXQhc-18" parent="1" target="qVr21uVaAAwVFGFWXQhc-20">
          <mxGeometry relative="1" as="geometry">
            <mxPoint x="440" y="590" as="targetPoint" />
          </mxGeometry>
        </mxCell>
        <mxCell id="qVr21uVaAAwVFGFWXQhc-20" value="Tạo access_token" style="rounded=1;whiteSpace=wrap;html=1;arcSize=40;fontColor=#000000;fillColor=#ffffc0;strokeColor=#ff0000;" vertex="1" parent="1">
          <mxGeometry x="380" y="560" width="120" height="40" as="geometry" />
        </mxCell>
        <mxCell id="qVr21uVaAAwVFGFWXQhc-21" value="" style="edgeStyle=orthogonalEdgeStyle;html=1;verticalAlign=bottom;endArrow=open;endSize=8;strokeColor=#ff0000;" edge="1" source="qVr21uVaAAwVFGFWXQhc-20" parent="1" target="qVr21uVaAAwVFGFWXQhc-22">
          <mxGeometry relative="1" as="geometry">
            <mxPoint x="440" y="640" as="targetPoint" />
          </mxGeometry>
        </mxCell>
        <mxCell id="qVr21uVaAAwVFGFWXQhc-22" value="Lưu access_token" style="rounded=1;whiteSpace=wrap;html=1;arcSize=40;fontColor=#000000;fillColor=#ffffc0;strokeColor=#ff0000;" vertex="1" parent="1">
          <mxGeometry x="380" y="750" width="120" height="40" as="geometry" />
        </mxCell>
        <mxCell id="qVr21uVaAAwVFGFWXQhc-23" value="" style="edgeStyle=orthogonalEdgeStyle;html=1;verticalAlign=bottom;endArrow=open;endSize=8;strokeColor=#ff0000;entryX=0.5;entryY=0;entryDx=0;entryDy=0;" edge="1" source="qVr21uVaAAwVFGFWXQhc-22" parent="1" target="qVr21uVaAAwVFGFWXQhc-24">
          <mxGeometry relative="1" as="geometry">
            <mxPoint x="440" y="910" as="targetPoint" />
          </mxGeometry>
        </mxCell>
        <mxCell id="qVr21uVaAAwVFGFWXQhc-24" value="" style="rhombus;whiteSpace=wrap;html=1;fillColor=#ffffc0;strokeColor=#ff0000;" vertex="1" parent="1">
          <mxGeometry x="400" y="870" width="80" height="40" as="geometry" />
        </mxCell>
        <mxCell id="qVr21uVaAAwVFGFWXQhc-25" value="no" style="edgeStyle=orthogonalEdgeStyle;html=1;align=left;verticalAlign=bottom;endArrow=open;endSize=8;strokeColor=#ff0000;" edge="1" source="qVr21uVaAAwVFGFWXQhc-24" parent="1" target="qVr21uVaAAwVFGFWXQhc-30">
          <mxGeometry x="-1" relative="1" as="geometry">
            <mxPoint x="700" y="890" as="targetPoint" />
          </mxGeometry>
        </mxCell>
        <mxCell id="qVr21uVaAAwVFGFWXQhc-26" value="yes" style="edgeStyle=orthogonalEdgeStyle;html=1;align=left;verticalAlign=top;endArrow=open;endSize=8;strokeColor=#ff0000;" edge="1" source="qVr21uVaAAwVFGFWXQhc-24" parent="1" target="qVr21uVaAAwVFGFWXQhc-28">
          <mxGeometry x="-1" y="22" relative="1" as="geometry">
            <mxPoint x="440" y="990" as="targetPoint" />
            <mxPoint x="-12" y="-20" as="offset" />
          </mxGeometry>
        </mxCell>
        <mxCell id="qVr21uVaAAwVFGFWXQhc-27" value="Lưu access_token&lt;br&gt;&amp;nbsp;thành công?" style="text;html=1;align=center;verticalAlign=middle;resizable=0;points=[];autosize=1;" vertex="1" parent="1">
          <mxGeometry x="455" y="830" width="110" height="30" as="geometry" />
        </mxCell>
        <mxCell id="qVr21uVaAAwVFGFWXQhc-28" value="Thông báo ủy quyền thành công" style="rounded=1;whiteSpace=wrap;html=1;arcSize=40;fontColor=#000000;fillColor=#ffffc0;strokeColor=#ff0000;" vertex="1" parent="1">
          <mxGeometry x="380" y="990" width="120" height="40" as="geometry" />
        </mxCell>
        <mxCell id="qVr21uVaAAwVFGFWXQhc-29" value="" style="edgeStyle=orthogonalEdgeStyle;html=1;verticalAlign=bottom;endArrow=open;endSize=8;strokeColor=#ff0000;" edge="1" source="qVr21uVaAAwVFGFWXQhc-28" parent="1" target="qVr21uVaAAwVFGFWXQhc-3">
          <mxGeometry relative="1" as="geometry">
            <mxPoint x="565" y="1130" as="targetPoint" />
          </mxGeometry>
        </mxCell>
        <mxCell id="qVr21uVaAAwVFGFWXQhc-30" value="Hiển thị thông báo lỗi không xác định" style="rounded=1;whiteSpace=wrap;html=1;arcSize=40;fontColor=#000000;fillColor=#ffffc0;strokeColor=#ff0000;" vertex="1" parent="1">
          <mxGeometry x="630" y="690" width="120" height="40" as="geometry" />
        </mxCell>
        <mxCell id="qVr21uVaAAwVFGFWXQhc-31" value="" style="edgeStyle=orthogonalEdgeStyle;html=1;verticalAlign=bottom;endArrow=open;endSize=8;strokeColor=#ff0000;entryX=1;entryY=0.5;entryDx=0;entryDy=0;" edge="1" source="qVr21uVaAAwVFGFWXQhc-30" parent="1" target="qVr21uVaAAwVFGFWXQhc-4">
          <mxGeometry relative="1" as="geometry">
            <mxPoint x="720" y="570" as="targetPoint" />
            <Array as="points">
              <mxPoint x="690" y="165" />
            </Array>
          </mxGeometry>
        </mxCell>
      </root>
    </mxGraphModel>
  </diagram>
</mxfile>
